<mxfile host="Electron" agent="Mozilla/5.0 (Macintosh; Intel Mac OS X 10_15_7) AppleWebKit/537.36 (KHTML, like Gecko) draw.io/28.1.2 Chrome/138.0.7204.243 Electron/37.4.0 Safari/537.36" version="28.1.2">
  <diagram name="TMIN-TMAX-Lifecycle" id="TMIN-TMAX-Lifecycle-1">
    <mxGraphModel dx="1234" dy="859" grid="1" gridSize="10" guides="1" tooltips="1" connect="1" arrows="1" fold="1" page="1" pageScale="1" pageWidth="2000" pageHeight="1400" math="0" shadow="0">
      <root>
        <mxCell id="0" />
        <mxCell id="1" parent="0" />
        <mxCell id="title" value="TMIN &amp;amp; TMAX (Monthly Temperature Extremes) Variable Lifecycle" style="text;html=1;strokeColor=none;fillColor=none;align=center;verticalAlign=middle;whiteSpace=wrap;rounded=0;fontSize=24;fontStyle=1" parent="1" vertex="1">
          <mxGeometry x="300" y="20" width="1400" height="40" as="geometry" />
        </mxCell>
        <mxCell id="legend-box" value="" style="rounded=1;whiteSpace=wrap;html=1;strokeColor=#666666;fillColor=none;" parent="1" vertex="1">
          <mxGeometry x="20" y="80" width="200" height="120" as="geometry" />
        </mxCell>
        <mxCell id="legend-title" value="Legend" style="text;html=1;strokeColor=none;fillColor=none;align=center;verticalAlign=middle;whiteSpace=wrap;rounded=0;fontStyle=1;fontSize=16;" parent="1" vertex="1">
          <mxGeometry x="30" y="84" width="180" height="20" as="geometry" />
        </mxCell>
        <mxCell id="legend-source" value="" style="shape=cylinder3;whiteSpace=wrap;html=1;boundedLbl=1;backgroundOutline=1;size=15;strokeWidth=2;fillColor=#dae8fc;strokeColor=#6c8ebf;" parent="1" vertex="1">
          <mxGeometry x="30" y="110" width="20" height="20" as="geometry" />
        </mxCell>
        <mxCell id="legend-source-text" value="Data Source" style="text;html=1;strokeColor=none;fillColor=none;align=left;verticalAlign=middle;whiteSpace=wrap;rounded=0;" parent="1" vertex="1">
          <mxGeometry x="60" y="110" width="140" height="20" as="geometry" />
        </mxCell>
        <mxCell id="legend-process" value="" style="rounded=1;whiteSpace=wrap;html=1;fillColor=#d5e8d4;strokeColor=#82b366;" parent="1" vertex="1">
          <mxGeometry x="30" y="140" width="20" height="20" as="geometry" />
        </mxCell>
        <mxCell id="legend-process-text" value="Process / Code" style="text;html=1;strokeColor=none;fillColor=none;align=left;verticalAlign=middle;whiteSpace=wrap;rounded=0;" parent="1" vertex="1">
          <mxGeometry x="60" y="140" width="140" height="20" as="geometry" />
        </mxCell>
        <mxCell id="legend-file" value="" style="shape=document;whiteSpace=wrap;html=1;boundedLbl=1;fillColor=#fff2cc;strokeColor=#d6b656;" parent="1" vertex="1">
          <mxGeometry x="30" y="170" width="20" height="20" as="geometry" />
        </mxCell>
        <mxCell id="legend-file-text" value="File / Artifact" style="text;html=1;strokeColor=none;fillColor=none;align=left;verticalAlign=middle;whiteSpace=wrap;rounded=0;" parent="1" vertex="1">
          <mxGeometry x="60" y="170" width="140" height="20" as="geometry" />
        </mxCell>
        <mxCell id="source-data" value="ERA5 Reanalysis&lt;br&gt;&lt;b&gt;2m_temperature&lt;/b&gt;&lt;br&gt;(Hourly or Daily)" style="shape=cylinder3;whiteSpace=wrap;html=1;boundedLbl=1;backgroundOutline=1;size=15;strokeWidth=2;fontSize=12;fontStyle=0;fillColor=#dae8fc;strokeColor=#6c8ebf;" parent="1" vertex="1">
          <mxGeometry x="80" y="460" width="180" height="80" as="geometry" />
        </mxCell>
        <mxCell id="downloader" value="ecmwf_downloader.py" style="rounded=1;whiteSpace=wrap;html=1;strokeWidth=2;fontSize=12;fillColor=#d5e8d4;strokeColor=#82b366;align=center;" parent="1" vertex="1">
          <mxGeometry x="340" y="460" width="180" height="80" as="geometry" />
        </mxCell>
        <mxCell id="downloaded-file" value="Downloaded NetCDF File(s)&lt;br&gt;&lt;b&gt;*.nc&lt;/b&gt;&lt;br&gt;(contains &#39;t2m&#39; variable)" style="shape=document;whiteSpace=wrap;html=1;boundedLbl=1;strokeWidth=2;fontSize=12;fillColor=#fff2cc;strokeColor=#d6b656;" parent="1" vertex="1">
          <mxGeometry x="600" y="460" width="180" height="80" as="geometry" />
        </mxCell>
        <mxCell id="processor-container" value="CBFMetProcessor Workflow" style="rounded=1;whiteSpace=wrap;html=1;strokeWidth=2;fontSize=14;fontStyle=1;align=center;verticalAlign=top;fillColor=#d5e8d4;strokeColor=#82b366;" parent="1" vertex="1">
          <mxGeometry x="900" y="230" width="410" height="850" as="geometry" />
        </mxCell>
        <mxCell id="step1" value="&lt;b&gt;1. Load Unified Dataset&lt;/b&gt;&lt;br&gt;_load_unified_era5_dataset()" style="rounded=0;whiteSpace=wrap;html=1;align=center;fillColor=#e6fffa;strokeColor=#006b57;" parent="processor-container" vertex="1">
          <mxGeometry x="34.166666666666664" y="60.7142857142857" width="341.66666666666663" height="75.89285714285714" as="geometry" />
        </mxCell>
        <mxCell id="step2" value="&lt;b&gt;2. Derive Extremes&lt;/b&gt;&lt;br&gt;_derive_temperature_extremes()" style="rounded=0;whiteSpace=wrap;html=1;align=center;fillColor=#e6fffa;strokeColor=#006b57;" parent="processor-container" vertex="1">
          <mxGeometry x="34.166666666666664" y="151.78571428571428" width="341.66666666666663" height="75.89285714285714" as="geometry" />
        </mxCell>
        <mxCell id="decision" value="Is data sub-monthly?" style="rhombus;whiteSpace=wrap;html=1;fillColor=#ffe6cc;strokeColor=#d79b00;" parent="processor-container" vertex="1">
          <mxGeometry x="68.33333333333333" y="259.99714285714276" width="273.3333333333333" height="121.4285714285714" as="geometry" />
        </mxCell>
        <mxCell id="resample-step" value="&lt;b&gt;3a. Resample to Monthly&lt;/b&gt;&lt;br&gt;`resample(&#39;MS&#39;).min()`&lt;br&gt;`resample(&#39;MS&#39;).max()`" style="rounded=0;whiteSpace=wrap;html=1;align=center;fillColor=#e6fffa;strokeColor=#006b57;" parent="processor-container" vertex="1">
          <mxGeometry x="210" y="450" width="165.83" height="110" as="geometry" />
        </mxCell>
        <mxCell id="asis-step" value="&lt;b&gt;3b. Use As-Is&lt;/b&gt;&lt;br&gt;(Monthly Mean used for Min/Max)&lt;br&gt;&lt;b&gt;[Warning Issued]&lt;/b&gt;" style="rounded=0;whiteSpace=wrap;html=1;align=center;fillColor=#ffcccc;strokeColor=#b85450;" parent="processor-container" vertex="1">
          <mxGeometry x="20" y="452.41" width="150" height="106.25" as="geometry" />
        </mxCell>
        <mxCell id="create-datasets" value="&lt;b&gt;4. Create TMIN &amp;amp; TMAX Datasets&lt;/b&gt;&lt;br&gt;Assign attributes (units, names)" style="rounded=0;whiteSpace=wrap;html=1;align=center;fillColor=#e6fffa;strokeColor=#006b57;" parent="processor-container" vertex="1">
          <mxGeometry x="34.166666666666664" y="607.1428571428571" width="341.66666666666663" height="91.07142857142856" as="geometry" />
        </mxCell>
        <mxCell id="mask-step" value="&lt;b&gt;5. Apply Land Mask (Optional)&lt;/b&gt;&lt;br&gt;_apply_land_masking()" style="rounded=0;whiteSpace=wrap;html=1;align=center;fillColor=#e6fffa;strokeColor=#006b57;dashed=1;" parent="processor-container" vertex="1">
          <mxGeometry x="34.166666666666664" y="713.3928571428571" width="341.66666666666663" height="75.89285714285714" as="geometry" />
        </mxCell>
        <mxCell id="merge-step" value="&lt;b&gt;6. Merge &amp;amp; Write&lt;/b&gt;&lt;br&gt;_create_unified_cbf_file()" style="rounded=0;whiteSpace=wrap;html=1;align=center;fillColor=#e6fffa;strokeColor=#006b57;" parent="processor-container" vertex="1">
          <mxGeometry x="34.166666666666664" y="804.4642857142857" width="341.66666666666663" height="75.89285714285714" as="geometry" />
        </mxCell>
        <mxCell id="sub-arrow1" value="" style="endArrow=classic;html=1;rounded=0;" parent="processor-container" source="step1" target="step2" edge="1">
          <mxGeometry width="50" height="50" relative="1" as="geometry">
            <mxPoint x="205" y="151.78571428571428" as="sourcePoint" />
            <mxPoint x="205" y="227.6785714285714" as="targetPoint" />
          </mxGeometry>
        </mxCell>
        <mxCell id="sub-arrow2" value="" style="endArrow=classic;html=1;rounded=0;" parent="processor-container" source="step2" target="decision" edge="1">
          <mxGeometry width="50" height="50" relative="1" as="geometry">
            <mxPoint x="205" y="242.8571428571428" as="sourcePoint" />
            <mxPoint x="205" y="318.75" as="targetPoint" />
          </mxGeometry>
        </mxCell>
        <mxCell id="sub-arrow3" value="Yes (Correct)" style="endArrow=classic;html=1;rounded=0;exitX=0.5;exitY=1;exitDx=0;exitDy=0;entryX=0.5;entryY=0;entryDx=0;entryDy=0;" parent="processor-container" source="decision" target="resample-step" edge="1">
          <mxGeometry width="50" height="50" relative="1" as="geometry">
            <mxPoint x="205" y="379.46428571428567" as="sourcePoint" />
            <mxPoint x="205" y="455.3571428571428" as="targetPoint" />
          </mxGeometry>
        </mxCell>
        <mxCell id="sub-arrow4" value="No (Fallback)" style="endArrow=classic;html=1;rounded=0;exitX=0.5;exitY=1;exitDx=0;exitDy=0;entryX=0.5;entryY=0;entryDx=0;entryDy=0;" parent="processor-container" source="decision" target="asis-step" edge="1">
          <mxGeometry width="50" height="50" relative="1" as="geometry">
            <mxPoint x="205" y="485.7142857142856" as="sourcePoint" />
            <mxPoint x="205" y="561.6071428571428" as="targetPoint" />
          </mxGeometry>
        </mxCell>
        <mxCell id="sub-arrow5" value="" style="endArrow=classic;html=1;rounded=0;exitX=0.5;exitY=1;exitDx=0;exitDy=0;entryX=0.5;entryY=0;entryDx=0;entryDy=0;" parent="processor-container" source="resample-step" target="create-datasets" edge="1">
          <mxGeometry width="50" height="50" relative="1" as="geometry">
            <mxPoint x="205" y="576.7857142857141" as="sourcePoint" />
            <mxPoint x="205" y="652.6785714285713" as="targetPoint" />
          </mxGeometry>
        </mxCell>
        <mxCell id="sub-arrow6" value="" style="endArrow=classic;html=1;rounded=0;exitX=0.5;exitY=1;exitDx=0;exitDy=0;entryX=0.5;entryY=0;entryDx=0;entryDy=0;" parent="processor-container" source="asis-step" target="create-datasets" edge="1">
          <mxGeometry width="50" height="50" relative="1" as="geometry">
            <mxPoint x="205" y="683.0357142857141" as="sourcePoint" />
            <mxPoint x="205" y="758.9285714285713" as="targetPoint" />
          </mxGeometry>
        </mxCell>
        <mxCell id="sub-arrow7" value="" style="endArrow=classic;html=1;rounded=0;exitX=0.5;exitY=1;exitDx=0;exitDy=0;entryX=0.5;entryY=0;entryDx=0;entryDy=0;" parent="processor-container" source="create-datasets" target="mask-step" edge="1">
          <mxGeometry width="50" height="50" relative="1" as="geometry">
            <mxPoint x="205" y="789.2857142857141" as="sourcePoint" />
            <mxPoint x="205" y="865.1785714285713" as="targetPoint" />
          </mxGeometry>
        </mxCell>
        <mxCell id="sub-arrow8" value="" style="endArrow=classic;html=1;rounded=0;exitX=0.5;exitY=1;exitDx=0;exitDy=0;entryX=0.5;entryY=0;entryDx=0;entryDy=0;" parent="processor-container" source="mask-step" target="merge-step" edge="1">
          <mxGeometry width="50" height="50" relative="1" as="geometry">
            <mxPoint x="205" y="895.5357142857141" as="sourcePoint" />
            <mxPoint x="205" y="971.4285714285712" as="targetPoint" />
          </mxGeometry>
        </mxCell>
        <mxCell id="cbf-file" value="Final CBF Met File&lt;br&gt;&lt;b&gt;AllMet05x05_LFmasked.nc&lt;/b&gt;&lt;br&gt;(contains &#39;TMIN&#39; &amp;amp; &#39;TMAX&#39;)" style="shape=document;whiteSpace=wrap;html=1;boundedLbl=1;strokeWidth=2;fontSize=12;fillColor=#fff2cc;strokeColor=#d6b656;" parent="1" vertex="1">
          <mxGeometry x="1550" y="830" width="180" height="80" as="geometry" />
        </mxCell>
        <mxCell id="erens-code" value="erens_cbf_code.py&lt;br&gt;&lt;br&gt;• Extracts &#39;T2M_MIN&#39;, &#39;T2M_MAX&#39;&lt;br&gt;• Uses for GDD, frost effects, etc." style="shape=parallelogram;perimeter=parallelogramPerimeter;whiteSpace=wrap;html=1;fixedSize=1;strokeWidth=2;fontSize=11;fontStyle=1;fillColor=#e1d5e7;strokeColor=#9673a6;align=center;" parent="1" vertex="1">
          <mxGeometry x="1750" y="540" width="220" height="100" as="geometry" />
        </mxCell>
        <mxCell id="arrow1" value="Download" style="edgeStyle=orthogonalEdgeStyle;rounded=0;orthogonalLoop=1;jettySize=auto;html=1;endArrow=classic;endFill=1;strokeWidth=2;" parent="1" source="source-data" target="downloader" edge="1">
          <mxGeometry relative="1" as="geometry" />
        </mxCell>
        <mxCell id="arrow2" value="Create File" style="edgeStyle=orthogonalEdgeStyle;rounded=0;orthogonalLoop=1;jettySize=auto;html=1;endArrow=classic;endFill=1;strokeWidth=2;" parent="1" source="downloader" target="downloaded-file" edge="1">
          <mxGeometry relative="1" as="geometry" />
        </mxCell>
        <mxCell id="arrow3" value="Process" style="edgeStyle=orthogonalEdgeStyle;rounded=0;orthogonalLoop=1;jettySize=auto;html=1;endArrow=classic;endFill=1;strokeWidth=2;" parent="1" source="downloaded-file" target="processor-container" edge="1">
          <mxGeometry relative="1" as="geometry" />
        </mxCell>
        <mxCell id="arrow4" value="Write" style="edgeStyle=orthogonalEdgeStyle;rounded=0;orthogonalLoop=1;jettySize=auto;html=1;endArrow=classic;endFill=1;strokeWidth=2;" parent="1" source="processor-container" target="cbf-file" edge="1">
          <mxGeometry relative="1" as="geometry" />
        </mxCell>
        <mxCell id="arrow5" value="Load" style="edgeStyle=orthogonalEdgeStyle;rounded=0;orthogonalLoop=1;jettySize=auto;html=1;endArrow=classic;endFill=1;strokeWidth=2;" parent="1" source="cbf-file" target="erens-code" edge="1">
          <mxGeometry relative="1" as="geometry" />
        </mxCell>
      </root>
    </mxGraphModel>
  </diagram>
</mxfile>
